<svg xmlns="http://www.w3.org/2000/svg" viewBox="0 0 32 32" fill="none">
  <defs>
    <linearGradient id="grad" x1="0%" y1="0%" x2="100%" y2="100%">
      <stop offset="0%" style="stop-color:#818CF8"/>
      <stop offset="100%" style="stop-color:#4F46E5"/>
    </linearGradient>
  </defs>
  <rect width="32" height="32" rx="8" fill="url(#grad)"/>
  <path d="M10 9C10 8.44772 10.4477 8 11 8H21C21.5523 8 22 8.44772 22 9V10H10V9Z" fill="white"/>
  <circle cx="16" cy="16" r="5" stroke="white" stroke-width="2" fill="none"/>
  <circle cx="16" cy="16" r="2" fill="white"/>
  <path d="M16 11V8M16 24V21M21 16H24M8 16H11" stroke="white" stroke-width="1.5" stroke-linecap="round"/>
  <path d="M8 23C8 22.4477 8.44772 22 9 22H23C23.5523 22 24 22.4477 24 23V24C24 24.5523 23.5523 25 23 25H9C8.44772 25 8 24.5523 8 24V23Z" fill="white" opacity="0.8"/>
</svg>
