<svg width="160" height="40" viewBox="0 0 160 40" fill="none" xmlns="http://www.w3.org/2000/svg">
  <defs>
    <linearGradient id="logoGradLight" x1="0%" y1="0%" x2="100%" y2="100%">
      <stop offset="0%" style="stop-color:#818CF8"/>
      <stop offset="100%" style="stop-color:#6366F1"/>
    </linearGradient>
  </defs>
  <!-- Icon background -->
  <rect x="2" y="2" width="36" height="36" rx="10" fill="url(#logoGradLight)"/>
  
  <!-- Phone handset -->
  <path d="M14 8C12.9 8 12 8.9 12 10V20C12 21.1 12.9 22 14 22H18M20 10V20M22 12V18M10 14H24" stroke="white" stroke-width="1.5" stroke-linecap="round" stroke-linejoin="round" fill="none"/>
  
  <!-- Waveforms (AI voice) -->
  <path d="M26 18C26 16.9 26.9 16 28 16M26 20C26 21.1 26.9 22 28 22M24 17C23.4 17 23 17.4 23 18C23 18.6 23.4 19 24 19" stroke="white" stroke-width="1.2" stroke-linecap="round" fill="none"/>
  
  <!-- Logo Text -->
  <text x="44" y="28" font-family="-apple-system, BlinkMacSystemFont, 'Segoe UI', sans-serif" font-size="20" font-weight="700" letter-spacing="-0.4" fill="#1F2937">TalkOS</text>
</svg>
